<?xml version="1.0" encoding="UTF-8"?>
<svg id="icon" xmlns="http://www.w3.org/2000/svg" viewBox="0 0 2844 2844">
  <defs>
    <style>
      .cls-1 {
        fill: #21190d;
      }

      .cls-2 {
        fill: #6f7070;
      }

      .cls-3 {
        fill: #171717;
      }

      .cls-4 {
        fill: #6f6f70;
      }

      .cls-5 {
        fill: #f1f1f2;
      }
    </style>
  </defs>
  <g id="Disk">
    <path id="Disk_Surface" data-name="Disk Surface" class="cls-1" d="m2703,1422c0-707.48-573.52-1281-1281-1281S141,714.52,141,1422s573.52,1281,1281,1281c3.15,0,6.3-.01,9.45-.03,703.13-5.08,1271.55-576.64,1271.55-1280.97Z"/>
    <g>
      <ellipse class="cls-5" cx="1422" cy="2088" rx="444.13" ry="174.56" transform="translate(-703.01 3454.08) rotate(-88.48)"/>
      <ellipse class="cls-5" cx="1030.54" cy="1960.8" rx="444.13" ry="174.56" transform="translate(-1152.29 1583.92) rotate(-52.48)"/>
      <ellipse class="cls-5" cx="788.6" cy="1627.8" rx="444.13" ry="174.56" transform="translate(-429.36 290.56) rotate(-16.48)"/>
      <ellipse class="cls-5" cx="788.6" cy="1216.19" rx="174.56" ry="444.13" transform="translate(-621.2 1553.07) rotate(-70.48)"/>
      <ellipse class="cls-5" cx="1030.53" cy="883.19" rx="174.56" ry="444.13" transform="translate(-318.95 738.54) rotate(-34.48)"/>
      <ellipse class="cls-5" cx="1422" cy="756" rx="444.13" ry="174.56" transform="translate(628.52 2157.43) rotate(-88.48)"/>
      <ellipse class="cls-5" cx="1813.47" cy="883.19" rx="444.13" ry="174.56" transform="translate(8.48 1783.6) rotate(-52.48)"/>
      <ellipse class="cls-5" cx="2055.4" cy="1216.19" rx="444.13" ry="174.56" transform="translate(-260.56 633) rotate(-16.48)"/>
      <ellipse class="cls-5" cx="2055.4" cy="1627.81" rx="174.56" ry="444.13" transform="translate(-165.65 3021.13) rotate(-70.48)"/>
      <ellipse class="cls-5" cx="1813.47" cy="1960.8" rx="174.56" ry="444.13" transform="translate(-791.45 1371.06) rotate(-34.48)"/>
    </g>
    <g id="Hub">
      <circle class="cls-2" cx="1422" cy="1422" r="343.44"/>
      <path class="cls-3" d="m1430.96,1472.73l-53.44-17.55c-15.82-5.2-24.44-22.23-19.25-38.04l17.53-53.42c5.19-15.81,22.22-24.42,38.04-19.23l53.44,17.55c15.82,5.2,24.44,22.23,19.25,38.04l-17.53,53.42c-5.19,15.81-22.22,24.42-38.04,19.23Z"/>
      <path class="cls-3" d="m1189.61,1466.87l-49.84-31.35c-25.97-16.34-33.79-50.62-17.46-76.58l76.06-120.91c9.51-15.12,29.48-19.66,44.6-10.14l69.48,43.7c15.12,9.51,19.68,29.48,10.17,44.59l-88.41,140.54c-9.51,15.12-29.48,19.66-44.6,10.14Z"/>
    </g>
  </g>
  <path id="Shutter" class="cls-4" d="m668,0v869.16c0,44.09,37.18,79.84,83.04,79.84h1334.04c50.21,0,90.92-39.14,90.92-87.42V0H668Zm1271.5,905.87c0,10.01-8.12,18.13-18.13,18.13h-350.74c-10.01,0-18.13-8.12-18.13-18.13V138.13c0-10.01,8.12-18.13,18.13-18.13h350.74c10.01,0,18.13,8.12,18.13,18.13v767.74Z"/>
</svg>