<?xml version="1.0" standalone="no"?>
<!DOCTYPE svg PUBLIC "-//W3C//DTD SVG 20010904//EN"
    "http://www.w3.org/TR/2001/REC-SVG-20010904/DTD/svg10.dtd">
<svg version="1.0" xmlns="http://www.w3.org/2000/svg"
     width="700.000000pt" height="700.000000pt" viewBox="0 0 700.000000 700.000000"
     preserveAspectRatio="xMidYMid meet">
    <metadata>
        Created by potrace 1.14, written by Peter Selinger 2001-2017
    </metadata>
    <g transform="translate(0.000000,700.000000) scale(0.100000,-0.100000)"
       fill="#000000" stroke="none">
        <path d="M1650 6526 l0 -474 -57 -43 c-275 -204 -584 -543 -768 -839 -191
-308 -335 -666 -409 -1016 -52 -249 -60 -339 -60 -654 0 -315 8 -405 60 -654
160 -759 600 -1436 1235 -1898 355 -258 767 -442 1197 -532 247 -52 337 -60
652 -60 315 0 405 8 654 60 671 142 1282 503 1735 1029 346 400 586 885 695
1401 52 249 60 339 60 654 0 315 -8 405 -60 654 -109 515 -347 996 -694 1401
-109 127 -328 337 -443 424 l-97 74 0 473 0 474 -1850 0 -1850 0 0 -474z
m3110 164 c18 -18 20 -33 20 -160 0 -77 -3 -140 -7 -140 -4 0 -64 22 -134 50
-213 83 -476 152 -689 180 -47 6 -95 13 -107 16 -27 5 -30 35 -7 58 14 14 69
16 460 16 431 0 445 -1 464 -20z m-895 -927 c46 -177 60 -308 59 -573 -1 -173
-5 -274 -17 -345 -8 -55 -15 -101 -14 -102 2 -1 29 43 62 99 188 314 533 674
767 798 l58 31 0 -455 c0 -443 -1 -457 -20 -476 -19 -19 -33 -20 -464 -20
-391 0 -446 2 -460 16 -14 14 -16 81 -15 592 0 396 3 569 10 552 6 -14 21 -66
34 -117z m993 -1125 c-44 -63 -152 -194 -230 -279 l-78 -87 89 39 c180 77 400
142 615 181 99 18 158 22 326 22 228 0 312 -15 414 -73 77 -43 109 -89 114
-161 4 -53 0 -69 -29 -128 -82 -167 -355 -357 -699 -489 -137 -52 -364 -116
-475 -133 -44 -7 -83 -16 -87 -19 -5 -4 31 -15 80 -25 193 -40 502 -156 692
-261 286 -159 486 -359 506 -508 16 -113 -55 -192 -216 -242 -74 -22 -289 -31
-415 -16 -267 31 -594 130 -835 251 l-83 42 57 -64 c129 -141 302 -393 391
-569 132 -259 199 -521 175 -676 -75 -467 -744 -75 -1190 697 -68 117 -72 122
-66 80 3 -25 9 -119 12 -210 22 -568 -145 -1117 -371 -1221 -274 -126 -507
410 -481 1106 3 99 13 220 21 270 7 49 13 91 12 92 -2 1 -29 -43 -62 -99 -104
-173 -238 -342 -399 -503 -166 -164 -282 -253 -421 -321 -135 -65 -236 -81
-313 -49 -53 23 -79 51 -102 112 -94 252 144 785 553 1235 l88 97 -89 -39
c-186 -80 -417 -147 -642 -187 -79 -13 -155 -18 -305 -17 -222 0 -308 16 -409
73 -77 43 -109 89 -114 161 -4 53 0 69 29 128 97 197 445 416 870 548 120 37
323 84 362 84 56 0 31 17 -51 34 -260 55 -627 210 -847 357 -196 131 -335 294
-351 412 -16 114 55 192 221 244 83 25 386 25 525 0 224 -42 484 -125 678
-217 l123 -59 -57 62 c-63 69 -210 262 -244 320 l-22 37 1377 0 1376 0 -23
-32z"/>
        <path d="M3370 4334 c-338 -65 -590 -291 -682 -611 -33 -113 -33 -333 0 -446
83 -287 302 -506 589 -589 113 -33 333 -33 446 0 286 82 507 303 589 589 33
113 33 333 0 446 -82 285 -302 506 -584 588 -72 21 -295 35 -358 23z"/>
    </g>
</svg>
